<svg width="57" height="64" viewBox="0 0 57 64" fill="none" xmlns="http://www.w3.org/2000/svg">
<path fill-rule="evenodd" clip-rule="evenodd" d="M30.9733 0.92381C34.1271 1.78394 36.7434 2.96661 39.3238 4.65104L41.2949 5.90539L39.4671 5.94123C38.0694 5.94123 36.9226 5.61868 34.9514 4.68688C31.2959 2.93078 27.7478 2.24984 23.7339 2.46488C20.0425 2.67991 17.5338 3.28916 18.1072 3.86258C18.2864 4.04178 19.4333 4.83023 20.6518 5.58284L22.8738 6.94471L21.6911 7.66149C20.5084 8.37826 16.4228 9.88349 15.5985 9.88349C15.3835 9.88349 14.0574 9.2384 12.7314 8.41411L10.2585 6.98055L9.04002 7.73317C7.42728 8.73665 3.91508 12.5714 3.62837 13.6466C3.52086 14.1483 3.73589 15.6177 4.16596 17.0154L4.91857 19.4883L11.0828 17.338L17.2829 15.2235L15.6702 16.872C14.0216 18.5565 8.43077 22.5346 7.10473 22.9646C5.38447 23.5022 6.49547 24.3623 9.7568 25.0074L12.2655 25.5092L10.0435 26.2976L7.82151 27.1219L9.50593 30.4908C10.4019 32.3544 11.262 33.8955 11.3695 33.8955C11.4771 33.8955 12.2297 32.7845 13.0898 31.4226C13.9141 30.0607 15.706 27.7312 17.1037 26.2618L19.6125 23.5739L18.5015 23.3589C17.8564 23.2513 16.6378 23.1438 15.706 23.108C14.8101 23.0722 13.6991 22.9646 13.2332 22.8571C12.4805 22.6421 12.6239 22.4629 14.7384 21.0652C16.0286 20.2051 17.928 18.5206 18.9674 17.3021C20.0067 16.0836 21.6194 14.3275 22.5154 13.3957C23.4114 12.428 24.0923 11.6754 24.0206 11.6754C23.9489 11.6754 23.3038 11.9263 22.5871 12.213C21.046 12.8581 21.0102 12.8581 21.261 12.2847C21.3327 12.0338 20.9385 11.6754 20.2576 11.3887L19.1107 10.9587L22.2645 9.34591C25.3467 7.76901 27.2103 7.37478 28.7513 7.9482C29.2172 8.12739 29.038 8.37826 27.9629 9.13088L26.601 10.0627L27.6045 10.1702C28.1779 10.2419 30.2207 9.88349 32.1919 9.38175C36.4567 8.27075 36.7434 8.23491 35.9549 9.13088C35.4173 9.7043 35.6682 9.66846 38.1769 8.84417C40.1481 8.19907 40.9723 7.76901 40.8648 7.44646C40.6498 6.94471 41.5099 7.05223 43.7678 7.76901C44.3053 7.9482 44.9146 8.01988 45.058 7.91236C45.2013 7.80484 45.5239 7.98404 45.7747 8.23491C46.384 9.02336 45.1655 9.52511 42.6568 9.52511C41.2949 9.56094 40.1481 9.81181 39.3238 10.2419C38.3561 10.7795 38.2486 10.9228 38.822 10.9587C39.2163 10.9587 39.8613 11.1737 40.2556 11.4604C40.9349 11.9609 40.9008 11.9978 40.0467 12.9231L40.0405 12.9298C39.3238 13.6824 39.7538 13.539 42.5851 12.0338C44.5562 11.0303 46.7424 10.1344 47.71 10.0268C49.7887 9.74014 52.2615 10.6003 53.1934 11.9621C54.0176 13.1807 55.1287 13.2165 55.7021 12.0338C56.1313 11.1754 56.1321 11.2094 56.1678 12.6346L56.168 12.6431C56.168 13.4674 55.9888 14.2558 55.7737 14.3992C55.5587 14.5067 55.4512 15.0801 55.5229 15.6535C55.7379 17.0871 55.4512 16.9437 54.3402 15.1518C53.4442 13.6466 53.4084 13.6107 50.5771 13.2165C48.0326 12.8581 47.6025 12.8581 46.2048 13.4674C42.5851 15.0801 36.7075 19.8108 35.5249 22.1403L34.9873 23.1797L36.1341 22.6062L37.281 21.997L36.1341 23.5739C34.5214 25.7959 33.5537 28.6272 33.3745 31.5659C33.3029 32.9278 33.3387 33.8596 33.4462 33.6087C33.8046 32.8561 34.3063 33.1428 34.3063 34.1463C34.3422 35.7949 35.5607 38.0169 37.0301 39.1279C39.1087 40.6331 39.1087 40.6331 38.607 41.2424C38.1411 41.8158 37.3526 41.995 37.6752 41.4574C37.8185 41.2782 37.3168 41.2782 36.5283 41.4574C34.3422 41.9592 33.8763 41.8875 34.3063 41.099C34.8798 39.988 34.7722 39.8805 33.2312 40.0956C31.9051 40.2747 31.8335 40.2389 32.1919 39.558C32.5502 38.9129 32.5144 38.877 31.7976 39.2713C31.3676 39.4863 30.7941 40.2389 30.5074 40.884C29.8265 42.5326 29.8623 42.6401 30.7941 41.995C32.0127 41.1349 32.8011 41.2424 32.0127 42.1025C31.3676 42.7835 31.4034 42.8193 33.0878 42.9268C34.8081 43.0343 34.8439 43.0702 33.8404 43.5002C33.267 43.7153 32.0127 43.9303 31.0092 43.9303C29.4323 43.9303 29.038 44.1095 27.5687 45.3997C26.6368 46.224 25.5617 47.0483 25.2033 47.2275C24.594 47.55 24.5582 47.4783 24.7374 46.4748C24.8807 45.8656 24.8449 45.3638 24.7016 45.3638C24.5582 45.3638 23.6264 46.0806 22.6587 46.9408C22.4847 47.0934 22.3242 47.2289 22.1786 47.3518L22.178 47.3523L22.1774 47.3528L22.1763 47.3538L22.1762 47.3538C21.6462 47.8011 21.3145 48.0811 21.2487 48.4136C21.1388 48.9697 21.7726 49.6729 23.4665 51.5521C23.7421 51.8579 24.0458 52.1949 24.379 52.5674C25.705 54.0368 27.927 56.2947 29.3248 57.549C31.5826 59.556 31.941 59.7352 32.6936 59.4126C33.1595 59.1976 35.0231 57.334 36.8151 55.2553L40.1122 51.4923L41.3307 52.1015C42.0117 52.3882 42.5493 52.7825 42.5493 52.9258C42.5493 53.4634 38.822 57.7641 35.6682 60.8462L32.4427 64L29.7548 61.778C25.9918 58.66 19.4691 51.8148 16.4586 47.765C9.36257 38.3395 3.5567 26.9786 0.761275 16.9796C-0.134694 13.8616 -0.170533 13.4315 0.295371 12.3205C1.01215 10.6003 5.45615 6.26378 8.0007 4.79439C10.9036 3.10997 15.9569 1.103 19.0749 0.422067C22.2645 -0.294711 27.4611 -0.0796766 30.9733 0.92381ZM43.266 10.2419C43.266 10.4211 42.5851 10.6003 41.7608 10.6003C40.614 10.6003 40.3631 10.4928 40.7573 10.2419C41.4741 9.77598 43.266 9.77598 43.266 10.2419ZM49.1794 15.1159C48.8927 15.2593 48.6418 15.1518 48.6418 14.9368C48.6418 14.3992 48.2476 14.435 47.3516 15.0801C46.9216 15.3668 46.4915 15.5102 46.384 15.4027C46.0614 15.0801 43.7319 16.6212 43.4811 17.2663C43.1585 18.1264 43.2302 18.2339 43.8036 17.768C44.2337 17.4096 44.3412 17.4096 44.3412 17.768C44.3412 18.0189 44.6279 17.8397 45.0221 17.3738L45.6672 16.5495L45.488 18.4131C45.4164 19.4524 45.4522 20.2767 45.6314 20.2767C45.8106 20.2767 46.2406 19.56 46.599 18.6998C46.9574 17.8039 47.495 16.9079 47.7817 16.657C48.2118 16.3345 48.2834 16.4061 48.2834 17.2663V18.2339L49.1436 17.4455C49.9679 16.657 50.0395 16.657 50.9355 17.2663C52.154 18.0547 52.5841 18.879 52.3332 19.9183C52.1899 20.4918 52.2257 20.671 52.5483 20.4918C52.7991 20.3126 52.6916 20.9577 52.2616 22.0328C51.5448 23.8964 51.6881 24.3265 52.6558 23.2155C53.7668 21.9611 54.0535 20.9935 53.8026 19.3808C53.6951 18.4848 53.4442 17.768 53.3009 17.768C53.0142 17.768 51.8315 16.8362 50.3979 15.546C50.0395 15.1876 49.502 15.0084 49.1794 15.1159ZM42.6926 23.3589C42.8001 23.6814 42.9076 24.5774 42.9076 25.4017L42.9435 26.9069L43.4452 25.8317L43.9111 24.7566L43.947 26.656C43.9828 28.5555 44.4129 29.8815 45.2013 30.3833C45.4164 30.5266 46.2048 30.67 46.9574 30.67C48.3193 30.67 48.7494 31.1359 47.71 31.5301C47.3875 31.6376 46.6707 31.7451 46.0973 31.7451C45.4522 31.7451 45.0938 31.8885 45.2372 32.1035C45.6314 32.7486 43.7319 32.4977 42.836 31.781C42.3342 31.3867 41.5099 30.0965 40.9723 28.878C39.8972 26.4768 39.3596 26.0826 38.0336 26.6919C37.1734 27.0503 37.1376 27.0502 37.3885 26.2976C38.0336 24.219 39.6822 22.8213 41.5099 22.7854C42.0834 22.7854 42.5493 23.0363 42.6926 23.3589ZM52.6916 30.8133C52.4049 33.3937 52.7991 32.7486 53.6593 29.2723C54.0893 27.6237 54.3402 26.226 54.2685 26.1184C53.946 25.8317 52.9067 29.0572 52.6916 30.8133ZM38.4636 30.67C38.9654 29.8098 38.9654 29.8815 38.7503 31.4584C38.5353 33.1787 38.7862 33.5729 39.6105 32.7486C39.933 32.4261 40.0405 32.4977 40.0405 33.107C40.0405 34.003 41.5816 35.1498 42.3701 34.8273C42.7284 34.7197 42.9076 34.8631 42.9076 35.2215C42.9076 35.6874 43.0868 35.6515 43.8036 34.9706C44.9863 33.8596 44.9504 34.5764 43.8036 35.8307L42.9076 36.7984L41.5458 36.0099C40.829 35.544 39.8972 34.9706 39.4671 34.7197C39.0371 34.4689 38.4636 34.3255 38.1769 34.433C37.5677 34.6839 37.1734 33.322 37.1734 30.8492C37.1734 28.9139 37.6752 28.3763 37.8185 30.2041L37.9619 31.5659L38.4636 30.67ZM50.4338 39.0204C50.4338 38.7695 50.1829 38.5545 49.8962 38.5545C49.5378 38.5545 49.3586 38.9129 49.3586 39.7013L49.3589 39.7087C49.3945 40.8125 49.3956 40.8467 49.8962 40.2031C50.1829 39.8088 50.4338 39.2713 50.4338 39.0204ZM47.8534 42.6043L48.6418 43.4644L46.3123 47.3708C43.3019 52.3882 43.1227 52.5316 43.4452 49.9154C43.7319 47.3708 44.7713 44.2887 45.7747 42.8551C46.7065 41.5649 46.8499 41.5291 47.8534 42.6043ZM32.4786 54.6819C32.2277 54.6819 30.83 53.9651 29.3248 53.0692C27.8195 52.1732 25.8126 50.8472 24.8091 50.1304C23.268 49.0194 23.483 49.3061 26.2426 52.1374C28.0346 53.9651 30.0774 55.9363 30.83 56.5455L32.1919 57.6207L33.8404 56.2588C34.7364 55.4704 35.8832 54.3235 36.4208 53.6426L37.3526 52.4241L35.1306 53.5709C33.8763 54.1802 32.6936 54.6819 32.4786 54.6819ZM31.2871 16.5394C29.0292 17.4712 26.413 19.2632 24.5494 21.2343L23.295 22.5245L25.1945 21.8077C26.198 21.4135 27.0581 21.1268 27.0581 21.1985C27.0581 21.2701 26.413 22.7037 25.6604 24.3523C24.8719 25.965 23.976 28.187 23.6893 29.2622L23.1158 31.1975L24.0118 30.3732C24.5135 29.9073 24.9078 29.6206 24.9078 29.6922C24.9078 29.7998 24.5852 31.305 24.191 33.0969C23.2234 37.5051 23.3309 38.6161 24.406 35.3906C25.7321 31.3767 28.2408 26.4309 30.2836 23.743L32.0755 21.3776L30.3553 22.5245C29.4235 23.1696 28.3125 23.9939 27.8824 24.3881C25.5529 26.4667 28.9576 20.5892 31.5738 17.9013C32.7923 16.6828 33.6883 15.6793 33.5808 15.6793C33.4374 15.6793 32.3981 16.0735 31.2871 16.5394ZM12.0061 35.4264C12.0061 34.9963 14.2281 33.7061 17.0235 32.4876C18.3137 31.95 19.568 31.4841 19.7831 31.4841C20.0339 31.4483 19.6039 32.3084 18.8154 33.3119C18.027 34.3512 16.8443 36.4657 16.235 37.9709C15.6258 39.512 15.0524 40.7305 15.0165 40.6588C14.5865 40.1571 12.0061 35.6414 12.0061 35.4264Z" fill="white"/>
</svg>
